OpenSim_Sub07_CSStiffKnee_GRF.mot
version=1
nRows=65
nColumns=19
inDegrees=no
endheader
time	lFx	lFy	lFz	lCOPx	lCOPy	lCOPz	rFx	rFy	rFz	rCOPx	rCOPy	rCOPz	lMx	lMy	lMz	rMx	rMy	rMz
0	7.34955682	493.64540736	19.47401105	0.67327927	0	-0.61948341	-3.25080119	265.78024663	-11.25620981	0.71616833	0	-0.42196640	0	2.79611682	0	0	2.69961067	0.00000000
0.01000000	7.17723105	493.56863695	19.42173344	0.67319629	0	-0.61936796	-2.95062719	266.13590015	-11.02591037	0.71720394	0	-0.42192888	0	2.97534556	0	0	2.62959641	-0.00000000
0.02000000	6.99783662	492.96623514	19.32701303	0.67342183	0	-0.61929925	-2.86945931	266.53943041	-10.91772223	0.71765162	0	-0.42184218	0	3.05187093	0	0	2.61246838	0
0.03000000	6.80891247	492.04784816	19.22468383	0.67380519	0	-0.61927954	-2.93207425	267.06479105	-10.90813355	0.71786738	0	-0.42170339	0	3.06220184	0	0	2.62638648	0
0.04000000	6.64665219	491.15761845	19.15037584	0.67419277	0	-0.61929023	-3.01461860	267.75893009	-10.97398880	0.71834654	0	-0.42157247	0	3.04209849	0	0	2.63727034	0
0.05000000	6.51369021	490.46593836	19.09765912	0.67455844	0	-0.61930541	-3.04365627	268.61422182	-11.08501051	0.71907026	0	-0.42148899	0	3.01275894	0	0	2.64579918	0
0.06000000	6.39030515	489.97052359	19.00629342	0.67493978	0	-0.61931510	-3.03099532	269.54347718	-11.21102133	0.71973448	0	-0.42144021	0	2.99587025	0	0	2.64960744	-0.00000000
0.07000000	6.26054433	489.55074104	18.83224443	0.67546118	0	-0.61931829	-3.03182887	270.38466953	-11.33396414	0.72013210	0	-0.42143584	0	2.99525355	0	0	2.63898138	0
0.08000000	6.14845497	488.99839878	18.57630019	0.67611868	0	-0.61929818	-3.08887632	271.03517598	-11.42771535	0.72044071	0	-0.42146371	0	2.99817423	0	0	2.61178506	0
0.09000000	6.05524437	488.24436184	18.29197829	0.67675646	0	-0.61925948	-3.20496204	271.53438024	-11.48466336	0.72091658	0	-0.42147113	0	2.99008001	0	0	2.58221733	0
0.10000000	5.96006039	487.35444528	18.02757690	0.67729973	0	-0.61921672	-3.36731246	271.93487064	-11.50705873	0.72157364	0	-0.42146011	0	2.96544974	0	0	2.55410357	0
0.11000000	5.83295524	486.41629646	17.81869931	0.67776882	0	-0.61916769	-3.54524272	272.28748933	-11.49895962	0.72240163	0	-0.42143874	0	2.92742699	0	0	2.53372494	0
0.12000000	5.68555741	485.48696282	17.68424336	0.67821003	0	-0.61913182	-3.72314701	272.67404221	-11.46768407	0.72332600	0	-0.42142033	0	2.87405340	0	0	2.52397732	0.00000000
0.13000000	5.53065948	484.70104813	17.62434898	0.67868754	0	-0.61910205	-3.91493153	273.07540422	-11.43222932	0.72406121	0	-0.42141089	0	2.81124191	0	0	2.52284954	-0.00000000
0.14000000	5.36065044	484.11176985	17.62857308	0.67915443	0	-0.61905031	-4.14793132	273.44913782	-11.39698222	0.72453890	0	-0.42139282	0	2.75880796	0	0	2.52467543	-0.00000000
0.15000000	5.18370469	483.71173777	17.69535992	0.67957322	0	-0.61898221	-4.38991964	273.83514714	-11.37888862	0.72500207	0	-0.42134516	0	2.71999768	0	0	2.52658752	0
0.16000000	5.00913197	483.50757858	17.79464538	0.67996885	0	-0.61893640	-4.57148089	274.28105016	-11.40125499	0.72561696	0	-0.42129896	0	2.70414656	0	0	2.52853937	0
0.17000000	4.86447630	483.44970707	17.88289726	0.68033262	0	-0.61891820	-4.67546490	274.74936738	-11.42752577	0.72630990	0	-0.42125705	0	2.70241378	0	0	2.51915808	0
0.18000000	4.74638216	483.51843146	17.95868585	0.68066765	0	-0.61892282	-4.74525917	275.17453752	-11.43907087	0.72686480	0	-0.42119005	0	2.69233326	0	0	2.49753406	0
0.19000000	4.62118145	483.69419763	18.02464502	0.68101896	0	-0.61894797	-4.79582424	275.49251829	-11.46990783	0.72711419	0	-0.42111233	0	2.66159007	0	0	2.47923614	0
0.20000000	4.46583890	483.87744398	18.08920170	0.68138143	0	-0.61897946	-4.80874403	275.66371384	-11.51966106	0.72717388	0	-0.42105155	0	2.62105172	0	0	2.47012683	0
0.21000000	4.29153648	483.94165407	18.15782317	0.68171762	0	-0.61902108	-4.78667206	275.73788051	-11.55246011	0.72727424	0	-0.42100429	0	2.57797683	0	0	2.48198638	0
0.22000000	4.12874530	483.78761460	18.20785815	0.68204177	0	-0.61908636	-4.75599761	275.78594498	-11.55617580	0.72745415	0	-0.42098516	0	2.52057977	0	0	2.50439199	0
0.23000000	4.00588415	483.43512545	18.23449692	0.68232484	0	-0.61916379	-4.74639044	275.85975616	-11.55523144	0.72768000	0	-0.42101229	0	2.45723193	0	0	2.52869425	0
0.24000000	3.92782139	483.07354354	18.25216166	0.68254775	0	-0.61923491	-4.76522405	276.04228140	-11.55947993	0.72805960	0	-0.42101951	0	2.41011811	0	0	2.54690030	-0.00000000
0.25000000	3.86815139	482.85191492	18.27377342	0.68276844	0	-0.61925832	-4.80703582	276.24752114	-11.56872511	0.72854143	0	-0.42100000	0	2.38874887	0	0	2.54830435	0
0.26000000	3.78870213	482.80976108	18.28992654	0.68300247	0	-0.61923984	-4.87145673	276.31711279	-11.57039562	0.72900788	0	-0.42092920	0	2.38110642	0	0	2.54274214	0
0.27000000	3.68478758	482.83799228	18.27022738	0.68325596	0	-0.61919179	-4.94128688	276.15397252	-11.57222322	0.72935264	0	-0.42081785	0	2.37068750	0	0	2.54986572	-0.00000000
0.28000000	3.59068928	482.92114741	18.22175456	0.68350164	0	-0.61916585	-4.98669065	275.82474006	-11.57265377	0.72959918	0	-0.42068021	0	2.34574460	0	0	2.56895026	0
0.29000000	3.53143458	483.13071798	18.19451606	0.68363886	0	-0.61919083	-4.99417040	275.41737150	-11.56426328	0.72974592	0	-0.42053717	0	2.30344738	0	0	2.58145906	0
0.30000000	3.51692366	483.44443666	18.22020260	0.68364640	0	-0.61924858	-4.97006305	274.96637930	-11.55516353	0.72975993	0	-0.42044720	0	2.25975056	0	0	2.59220687	0.00000000
0.31000000	3.54287967	483.79958296	18.28155904	0.68360079	0	-0.61930026	-4.94354324	274.51763831	-11.53991858	0.72977839	0	-0.42041490	0	2.23887959	0	0	2.59247155	0
0.32000000	3.59598702	484.20132497	18.35000699	0.68357073	0	-0.61934524	-4.92666577	274.07801907	-11.53777146	0.72976583	0	-0.42040519	0	2.25294655	0	0	2.58234296	0
0.33000000	3.64952307	484.72728396	18.42233909	0.68353133	0	-0.61939836	-4.90416357	273.62590691	-11.53714777	0.72963198	0	-0.42037711	0	2.30228566	0	0	2.57828707	0
0.34000000	3.67163518	485.35830029	18.49930009	0.68349057	0	-0.61945525	-4.86946526	273.17843656	-11.49523273	0.72934778	0	-0.42033346	0	2.36218012	0	0	2.57712394	0
0.35000000	3.66066035	485.97238183	18.60723507	0.68341528	0	-0.61949625	-4.88087663	272.73835998	-11.41067788	0.72915963	0	-0.42032381	0	2.42081983	0	0	2.57440978	0.00000000
0.36000000	3.62990077	486.54764871	18.75777671	0.68327888	0	-0.61952442	-5.04635995	272.24943313	-11.31478214	0.72933664	0	-0.42036664	0	2.50347899	0	0	2.58257321	0
0.37000000	3.60587656	487.11036121	18.94671034	0.68311210	0	-0.61955773	-5.49310956	271.57394150	-11.25402050	0.72988691	0	-0.42046299	0	2.62934332	0	0	2.60914004	0.00000000
0.38000000	3.58921054	487.64413081	19.16847040	0.68294156	0	-0.61959890	-6.24344032	270.61624909	-11.22374860	0.73066463	0	-0.42056527	0	2.77549202	0	0	2.63913795	0.00000000
0.39000000	3.52223942	488.14440574	19.42133896	0.68282848	0	-0.61962797	-7.01397118	269.41875600	-11.19699139	0.73138146	0	-0.42063990	0	2.91801139	0	0	2.64404282	0
0.40000000	3.29653105	488.64315787	19.67442810	0.68289266	0	-0.61962743	-7.41907582	268.02529146	-11.17170870	0.73129927	0	-0.42070172	0	3.05981098	0	0	2.64465181	0
0.41000000	2.77474193	489.07984533	19.87419667	0.68317456	0	-0.61961831	-7.36383273	266.62270517	-11.13129732	0.73037385	0	-0.42074345	0	3.14372274	0	0	2.63042732	0
0.42000000	2.05142070	489.29793526	19.95332339	0.68363846	0	-0.61964243	-7.08475305	265.46026111	-11.09338255	0.72910304	0	-0.42083263	0	3.12363297	0	0	2.61929337	0.00000000
0.43000000	1.50947869	489.11330077	19.92809373	0.68379414	0	-0.61968766	-6.80307310	264.71029277	-11.04907347	0.72803699	0	-0.42099841	0	3.02097801	0	0	2.62757511	0.00000000
0.44000000	1.49591478	488.75012382	19.83794314	0.68339910	0	-0.61974777	-6.59895905	264.47696359	-10.97794079	0.72750579	0	-0.42113917	0	2.88032788	0	0	2.62485316	0
0.45000000	1.93945771	488.75568750	19.69302424	0.68269380	0	-0.61982440	-6.46078399	264.72478552	-10.91297148	0.72733716	0	-0.42117133	0	2.74371197	0	0	2.59560131	0
0.46000000	2.56393887	489.37487517	19.47828633	0.68196240	0	-0.61990761	-6.35694456	265.30445302	-10.90208877	0.72723998	0	-0.42112575	0	2.65003758	0	0	2.55551499	0
0.47000000	3.14816494	490.43932800	19.23194701	0.68129881	0	-0.61994265	-6.24171161	266.04559570	-10.96877387	0.72702552	0	-0.42108497	0	2.61590776	0	0	2.53200969	0
0.48000000	3.59086075	491.56956412	18.99865589	0.68065940	0	-0.61991706	-6.09914215	266.79657665	-11.06030644	0.72667618	0	-0.42104797	0	2.63765576	0	0	2.52811953	0
0.49000000	3.89056220	492.38914468	18.81833698	0.68001592	0	-0.61988865	-5.99130055	267.44221803	-11.14094990	0.72629928	0	-0.42102503	0	2.67457220	0	0	2.52174819	0
0.50000000	4.09046062	492.71094068	18.70977194	0.67936541	0	-0.61989706	-5.95680127	267.85523062	-11.21214790	0.72588385	0	-0.42103052	0	2.69343601	0	0	2.51686140	0
0.51000000	4.26857373	492.67527248	18.66215836	0.67865737	0	-0.61992810	-5.95645584	267.96911089	-11.29373543	0.72546218	0	-0.42104350	0	2.69104040	0	0	2.52460338	0
0.52000000	4.44066386	492.51799601	18.66825655	0.67798476	0	-0.61994055	-5.92445426	267.88184639	-11.37562670	0.72499397	0	-0.42102226	0	2.65779173	0	0	2.54064983	0
0.53000000	4.56402922	492.37823195	18.70575774	0.67746392	0	-0.61993504	-5.82144321	267.73773274	-11.44917762	0.72443110	0	-0.42096714	0	2.60626982	0	0	2.55589887	0.00000000
0.54000000	4.61222429	492.32757937	18.75170333	0.67716343	0	-0.61993335	-5.71646766	267.69999548	-11.50430083	0.72391706	0	-0.42082209	0	2.54440408	0	0	2.56593750	0
0.55000000	4.61669017	492.34155226	18.76916068	0.67716053	0	-0.61994971	-5.70064380	267.75170529	-11.54440917	0.72356520	0	-0.42059909	0	2.47408316	0	0	2.57520709	0.00000000
0.56000000	4.57980807	492.33944588	18.73907289	0.67730866	0	-0.61998018	-5.80519484	267.73448708	-11.57208015	0.72335143	0	-0.42040585	0	2.40550793	0	0	2.59446012	0.00000000
0.57000000	4.48185311	492.23775335	18.65396056	0.67741705	0	-0.61998234	-5.98045573	267.60540399	-11.59545917	0.72334758	0	-0.42033153	0	2.35300627	0	0	2.60994146	0.00000000
0.58000000	4.31392770	491.92992200	18.50500350	0.67753876	0	-0.61994206	-6.11229231	267.52495961	-11.63247262	0.72344815	0	-0.42028317	0	2.31236473	0	0	2.61628007	0
0.59000000	4.05249094	491.37594338	18.34789631	0.67785822	0	-0.61985954	-6.08567250	267.76822430	-11.68623112	0.72355051	0	-0.42015946	0	2.26767691	0	0	2.60730175	0
0.60000000	3.78466283	490.62289191	18.24772422	0.67836051	0	-0.61971329	-5.90055572	268.77787883	-11.79210429	0.72397584	0	-0.41993644	0	2.21910202	0	0	2.58325220	0
0.61000000	3.66355990	489.81661900	18.22851067	0.67895712	0	-0.61951333	-5.65327151	270.85418069	-11.95957062	0.72491142	0	-0.41965819	0	2.17588413	0	0	2.54940976	0
0.62000000	3.69958890	489.06561989	18.24380629	0.67981430	0	-0.61927281	-5.41826673	274.03510234	-12.19047639	0.72616211	0	-0.41931271	0	2.15242177	0	0	2.53559053	0
0.63000000	3.74060289	488.16893443	18.16584148	0.68107979	0	-0.61897596	-5.32532817	278.21491843	-12.53223854	0.72722462	0	-0.41882054	0	2.16589963	0	0	2.56425182	0
0.64000000	3.64991868	486.55449505	17.84313875	0.68267988	0	-0.61860749	-5.51583213	283.14120134	-13.00360660	0.72799605	0	-0.41815742	0	2.23052950	0	0	2.61251998	0
